<svg width="23" height="17" viewBox="0 0 23 17" fill="none" xmlns="http://www.w3.org/2000/svg">
<path d="M23 16.6077C23 13.9923 21.5584 10.6577 19.5926 8.04231L19.4615 7.91154C16.2507 3.72692 12.1225 0.392307 11.7949 0.196153L11.4672 0L11.1396 0.196153C10.8775 0.392307 6.74929 3.72692 3.60399 7.91154C3.60399 7.91154 3.53846 8.04231 3.47293 8.10769C1.50712 10.7231 0 14.0577 0 16.6731H1.17949C1.17949 15.3654 1.63818 13.6654 2.35897 12.2269C2.4245 13.3385 2.88319 14.1231 3.40741 14.7769C4.25926 15.8231 5.24217 17 5.24217 17H5.70085C5.70085 17 6.88034 15.6923 8.12536 14.2538C9.30484 15.6269 10.4843 17 10.4843 17H12.5812C12.5812 17 10.1567 14.7115 8.91168 13.3385C9.89459 12.2923 10.812 11.2462 11.3362 10.6577C11.4017 10.5923 11.4017 10.5923 11.4672 10.5269C11.5328 10.5923 11.5328 10.5923 11.5983 10.6577C12.1225 11.2462 13.1054 12.3577 14.0228 13.4038C12.7778 14.7769 10.4843 17 10.4843 17H12.5812C12.5812 17 13.6296 15.6269 14.8091 14.3192C16.0541 15.6923 17.1681 16.9346 17.1681 17H17.6268C17.6268 17 18.6097 15.8231 19.4615 14.7115C19.9858 13.9923 20.51 13.3385 20.5755 12.2269C21.2963 13.7308 21.8205 15.4308 21.8205 16.7385H23V16.6077ZM11.4017 1.83077C13.6952 5.1 12.7123 7.06154 11.4672 8.63077C10.3533 7.06154 9.4359 4.77308 11.4017 1.83077ZM4.58689 8.5C4.98006 7.97692 5.37322 7.45385 5.83191 6.99615C5.04558 9.80769 6.02849 11.7038 7.40456 13.3385C6.68376 14.1231 6.02849 14.9077 5.5698 15.4308C5.24217 15.0385 4.78348 14.45 4.39031 13.9923C3.47293 12.8154 2.88319 11.3769 4.58689 8.5ZM10.4188 9.80769C9.89459 10.3962 9.04274 11.3769 8.12536 12.3577C6.68376 10.5923 5.50427 8.43462 8.25641 4.25L8.32194 4.18462C8.7151 3.79231 9.10826 3.4 9.50142 3.00769C8.45299 5.81923 9.63248 8.04231 10.6809 9.48077C10.5499 9.61154 10.4843 9.74231 10.4188 9.80769ZM12.188 9.54615C13.3675 8.10769 14.6781 6.08077 13.433 3.00769C13.8262 3.33462 14.2194 3.72692 14.6125 4.18462L14.6781 4.31539C17.4302 8.56539 16.2507 10.6577 14.7436 12.4231C13.8262 11.3769 12.9088 10.3308 12.3846 9.74231C12.3846 9.74231 12.3191 9.67692 12.188 9.54615ZM18.5442 13.9269C18.151 14.45 17.6923 14.9731 17.3647 15.3654C16.906 14.8423 16.2507 14.1231 15.5954 13.3385C16.9715 11.7038 18.0199 9.80769 17.2336 6.99615C17.6268 7.45385 18.0199 7.97692 18.4131 8.5C20.1168 11.4423 19.3305 12.8154 18.5442 13.9269Z" fill="#3E50B0"/>
</svg>
