<svg width="22" height="18" viewBox="0 0 22 18" fill="none" xmlns="http://www.w3.org/2000/svg">
<path d="M10.2931 11.8378C10.2931 11.5135 10.2931 11.1892 10.3448 10.8649H6.31035L9.72414 7.72973L11.1207 8.86486C11.3276 8.54054 11.5345 8.37838 11.7414 8.10811L10.5 7.08108H13.1379C13.8103 6.7027 14.5862 6.54054 15.4138 6.54054C16.2931 6.54054 17.2759 6.75676 18 7.18919C17.8966 6.97297 17.8448 6.75676 17.8448 6.7027L17.5862 6.10811C16.5 2.75676 12.8276 0 9.31035 0C3.98276 0 0 6 0 11.4054V11.9459H4.96552H5.17241L10.2931 12C10.2931 11.9459 10.2931 11.8919 10.2931 11.8378ZM16.2414 6H11.2759L14.2759 3.18919L14.3276 3.13513C15.2586 4 15.7241 4.64865 16.2414 6ZM10.3448 1.13514C11.5345 1.2973 12.6207 1.78378 13.6034 2.54054L10.3448 6V1.13514ZM9 1.08108L8.94828 6L5.12069 2.75676C6.25862 1.83784 7.5 1.13513 9 1.08108ZM4.5 3.35135L7.60345 6H2.63793C3.10345 5.02703 3.77586 4.10811 4.5 3.35135ZM1.24138 10.8649C1.2931 9.83784 1.5 8.81081 1.81034 7.83784L3.82759 10.8649H1.24138ZM4.96552 10.6486L2.58621 7.08108H8.7931L4.96552 10.6486Z" fill="#3E50B0"/>
<path d="M16 18C12.6667 18 10 15.2778 10 12C10 8.66667 12.7222 6 16 6C19.2778 6 22 8.72222 22 12C22 15.3333 19.3333 18 16 18ZM16 7.11111C13.2778 7.11111 11.1111 9.33333 11.1111 12C11.1111 14.6667 13.3333 16.8889 16 16.8889C18.7222 16.8889 20.8889 14.6667 20.8889 12C20.8889 9.33333 18.7222 7.11111 16 7.11111Z" fill="#3E50B0"/>
<path d="M14 15V9L19 12L14 15ZM14.9884 10.6981V13.2453L17.1977 11.9434L14.9884 10.6981Z" fill="#3E50B0"/>
</svg>
