<svg width="23" height="14" viewBox="0 0 23 14" fill="none" xmlns="http://www.w3.org/2000/svg">
<path d="M1.52969 8.53598L0 8.42671C3.87886 -2.17186 18.3017 -3.42839 23 8.42671H21.1971C17.2637 -1.18849 5.13539 -0.0958522 1.52969 8.53598Z" fill="#3E50B0"/>
<path d="M2.78429 4.21333L2.021 6.02588L11.1341 9.86355L11.8974 8.051L2.78429 4.21333Z" fill="#3E50B0"/>
<path d="M10.708 10.1747L7.3208 1.16041L9.17828 0.450195L12.5655 9.51908L10.708 10.1747Z" fill="#3E50B0"/>
<path d="M10.9263 9.24642L14.6959 0.942383L16.4441 1.76186L12.7291 10.0659L10.9263 9.24642Z" fill="#3E50B0"/>
<path d="M21.2518 8.42676H1.42041V10.3935H21.2518V8.42676Z" fill="#3E50B0"/>
<path d="M16 13.8521L16 8.85205L14 8.85205L14 13.8521L16 13.8521Z" fill="#3E50B0"/>
<path d="M9 13.8521L9 8.85205L7 8.85205L7 13.8521L9 13.8521Z" fill="#3E50B0"/>
<path d="M3.38716 8.42676H1.42041V13.9992H3.38716V8.42676Z" fill="#3E50B0"/>
<path d="M21.3061 8.42676H19.3394V13.9992H21.3061V8.42676Z" fill="#3E50B0"/>
<path d="M11.8008 8.04467L20.4326 4.43896L21.6891 6.13255L12.5656 9.90215L11.8008 8.04467Z" fill="#3E50B0"/>
</svg>
