<svg width="23" height="15" viewBox="0 0 23 15" fill="none" xmlns="http://www.w3.org/2000/svg">
<path d="M11.5 0C4.91944 0 0 7.36726 0 14.0044V15H23V14.0708C23 7.43363 18.0806 0 11.5 0ZM12.1389 1.39381C13.6083 1.52655 15.0139 2.12389 16.2278 2.98673L12.1389 6.96903V1.39381ZM10.8611 6.96903L6.38889 3.18584C7.73056 2.19027 9.26389 1.46018 10.8611 1.39381V6.96903ZM11.6278 9.62389L16.4194 13.6726H7.09167L11.6278 9.62389ZM5.87778 12.9425L3.25833 9.02655H10.0944L5.87778 12.9425ZM17.6333 12.9425L12.9694 9.02655H19.6139L17.6333 12.9425ZM19.9333 7.69912H13.4167L17.3139 3.9823C18.4 4.97788 19.2306 6.37168 19.9333 7.69912ZM5.30278 4.24779L9.39167 7.69912H2.875C3.51389 6.37168 4.28056 5.17699 5.30278 4.24779ZM1.98056 9.75664L4.6 13.6726H1.15C1.21389 12.3451 1.53333 11.0177 1.98056 9.75664ZM18.7194 13.6726L20.7639 9.69027C21.2111 11.0177 21.5306 12.3451 21.5944 13.6726H18.7194Z" fill="#3E50B0"/>
</svg>
