<svg width="23" height="14" viewBox="0 0 23 14" fill="none" xmlns="http://www.w3.org/2000/svg">
<path d="M11.5 0C4.91944 0 0 6.87611 0 13.0708V14H23V13.1327C23 6.93805 18.0806 0 11.5 0ZM19.9333 7.18584H13.4167L17.3139 3.71681C18.4 4.64602 19.2306 5.9469 19.9333 7.18584ZM12.1389 1.30089C13.6083 1.42478 15.0139 1.9823 16.2278 2.78761L12.1389 6.50442V1.30089ZM10.8611 1.30089V6.50442L6.38889 2.97345C7.73056 2.04425 9.26389 1.36283 10.8611 1.30089ZM5.30278 3.9646L9.39167 7.18584H2.875C3.51389 5.9469 4.28056 4.83186 5.30278 3.9646ZM1.53333 12.7611C1.53333 11.9558 1.66111 10.5929 1.85278 10.1593C2.04444 9.60177 2.10833 9.04425 2.49167 8.42478H20.2528C20.5722 8.92035 20.8278 9.53982 21.0194 10.3451C21.275 11.0885 21.3389 11.8938 21.3389 12.7611H1.53333Z" fill="#3E50B0"/>
</svg>
