<svg width="23" height="15" viewBox="0 0 23 15" fill="none" xmlns="http://www.w3.org/2000/svg">
<path d="M11.5 0C4.91944 0 0 7.36726 0 14.0044V15H23V14.0708C23 7.43363 18.0806 0 11.5 0ZM12.1389 1.39381C13.6083 1.52655 15.0139 2.12389 16.2278 2.98673L12.1389 6.96903V1.39381ZM10.8611 6.96903L6.38889 3.18584C7.73056 2.19027 9.26389 1.46018 10.8611 1.39381V6.96903ZM19.9333 7.69912H13.4167L17.3139 3.9823C18.4 4.97788 19.2306 6.37168 19.9333 7.69912ZM5.30278 4.24779L9.39167 7.69912H2.875C3.51389 6.37168 4.28056 5.17699 5.30278 4.24779ZM20.6361 13.208L12.1389 8.8938H20.1889C20.5722 10.354 20.7639 11.6814 20.6361 13.208ZM2.55556 9.09292L10.8611 8.96018L2.10833 13.0752C1.98056 11.615 2.10833 10.4204 2.55556 9.09292ZM19.55 13.8053C15.1417 13.8053 5.62222 13.8053 3.32222 13.8053L11.5 9.88938" fill="#3E50B0"/>
</svg>
