<svg width="23" height="14" viewBox="0 0 23 14" fill="none" xmlns="http://www.w3.org/2000/svg">
<path d="M23 12.9113C23 10.296 21.5584 6.96134 19.5926 4.34596L19.4615 4.21519C16.2507 0.0305748 12.1225 0.196154 11.7949 0L11.4672 -0.000135705L11.1396 0C10.8775 0.196154 6.74929 0.0305748 3.60399 4.21519C3.60399 4.21519 3.53846 4.34596 3.47293 4.41134C1.50712 7.02673 0 10.3613 0 12.9767H1.17949C1.17949 11.669 1.63818 9.96904 2.35897 8.53057C2.4245 9.64211 2.88319 10.4267 3.40741 11.0806C4.25926 12.1267 5.24217 13.3037 5.24217 13.3037H5.70085C5.70085 13.3037 6.88034 11.996 8.12536 10.5575C9.30484 11.9306 10.4843 13.3037 10.4843 13.3037H12.5812C12.5812 13.3037 10.1567 11.0152 8.91168 9.64211C9.89459 8.59596 10.812 7.54981 11.3362 6.96134C11.4017 6.89596 11.4017 6.89596 11.4672 6.83058C11.5328 6.89596 11.5328 6.89596 11.5983 6.96134C12.1225 7.54981 12.3846 7.80371 14 9.64211C12.755 11.0152 10.4843 13.3037 10.4843 13.3037H12.5812C12.5812 13.3037 13.6296 11.9306 14.8091 10.6229C16.0541 11.996 17.1681 13.2383 17.1681 13.3037H17.6268C17.6268 13.3037 18.6097 12.1267 19.4615 11.0152C19.9858 10.296 20.51 9.64211 20.5755 8.53057C21.2963 10.0344 21.8205 11.7344 21.8205 13.0421H23V12.9113ZM11.4672 1.30371C13 1.30371 12.9858 5.08649 11.5983 5.08649C10 5.08649 10 1.30371 11.4672 1.30371ZM7.40456 2.31134C7 4.41134 6.05261 4.01233 5.70085 5.08649C5.20085 6.61336 6 8.53057 7.40456 9.64211C6.68376 10.4267 6.02849 11.2113 5.5698 11.7344C5.24217 11.3421 4.78348 10.7537 4.39031 10.296C3.47293 9.11904 1.5 6.11134 7.40456 2.31134ZM10.4188 6.11134C9.89459 6.69981 9.04274 7.68057 8.12536 8.66134C7 7.80371 6 5.80371 8.25641 3.55365L8.32194 3.48827C8.7151 3.09596 9.60684 2.19602 10 1.80371C9 3.80371 9.5 4.80371 10.6809 5.78442C10.5499 5.91519 10.4843 6.04596 10.4188 6.11134ZM12.188 5.84981C13.5 4.80371 14 3.80371 13 1.80371C13.3932 2.13063 14.2194 3.03057 14.6125 3.48827L14.6781 3.61904C17.2489 6.61682 15.5954 7.80371 14.7436 8.72673C13.8262 7.68057 12.9088 6.63442 12.3846 6.04596C12.3846 6.04596 12.3191 5.98058 12.188 5.84981ZM18.5442 10.2306C18.151 10.7537 17.6923 11.2767 17.3647 11.669C16.906 11.146 16.2507 10.4267 15.5954 9.64211C17.1681 8.30371 17.3779 6.65481 17 5.30371C16.8541 4.78213 14.6068 1.78077 15 2.30385C21.8205 5.78442 19.3305 9.11904 18.5442 10.2306Z" fill="#3E50B0"/>
</svg>
