<svg width="58" height="62" viewBox="0 0 58 62" fill="none" xmlns="http://www.w3.org/2000/svg">
<circle cx="29" cy="29" r="29" fill="url(#paint0_linear_623_4)"/>
<path d="M18.3711 33.3252V32.3252H17.3711V33.3252H18.3711ZM23.9521 33.3252H24.9521V32.3252H23.9521V33.3252ZM25.7803 37.5352L25.1696 38.3271L25.1771 38.3327L25.7803 37.5352ZM31.2383 37.6846L31.7912 38.5178L31.793 38.5166L31.2383 37.6846ZM32.5566 36.1641L31.6282 35.7927L31.6262 35.7975L32.5566 36.1641ZM26.4307 31.0225H25.4307V32.0225H26.4307V31.0225ZM26.4307 26.8828V25.8828H25.4307V26.8828H26.4307ZM31.5195 21.5039L30.7626 22.1574L30.7653 22.1606L31.5195 21.5039ZM24.3037 25.1162V26.1162H25.2911L25.3036 25.1289L24.3037 25.1162ZM19.0127 25.1162H18.0127V26.1162H19.0127V25.1162ZM19.707 21.082L18.763 20.7522L18.7621 20.7546L19.707 21.082ZM34.2705 17.2412L33.7695 18.1066L33.774 18.1092L34.2705 17.2412ZM36.9863 19.9922L36.0709 20.3946L36.0727 20.3988L36.9863 19.9922ZM36.3535 27.0322L35.6441 26.3274L35.6441 26.3274L36.3535 27.0322ZM33.1982 28.79L32.9768 27.8149L32.1982 27.9916V28.79H33.1982ZM33.1982 28.8955H32.1982V29.8066L33.1054 29.8912L33.1982 28.8955ZM36.5908 40.084L35.9275 39.3356L35.9258 39.3371L36.5908 40.084ZM32.5039 42.2549L32.2971 41.2765L32.2933 41.2773L32.5039 42.2549ZM22.2998 41.2354L21.7569 42.0752L21.7607 42.0776L22.2998 41.2354ZM19.1797 37.6494L18.2464 38.0087L18.2469 38.01L19.1797 37.6494ZM18.3711 34.3252H23.9521V32.3252H18.3711V34.3252ZM22.9521 33.3252C22.9521 34.2047 23.1047 35.0746 23.4035 35.9309L25.2919 35.2722C25.0632 34.6168 24.9521 33.9692 24.9521 33.3252H22.9521ZM23.4035 35.9309C23.7368 36.8866 24.339 37.6865 25.1696 38.327L26.391 36.7433C25.8387 36.3174 25.4858 35.8282 25.2919 35.2722L23.4035 35.9309ZM25.1771 38.3327C26.0995 39.0304 27.2722 39.3262 28.5928 39.3262V37.3262C27.5579 37.3262 26.8556 37.0946 26.3835 36.7376L25.1771 38.3327ZM28.5928 39.3262C29.8251 39.3262 30.9248 39.0928 31.7912 38.5178L30.6853 36.8514C30.2627 37.1318 29.5988 37.3262 28.5928 37.3262V39.3262ZM31.793 38.5166C32.5699 37.9987 33.1667 37.3438 33.487 36.5306L31.6262 35.7975C31.4896 36.1445 31.2075 36.5033 30.6836 36.8525L31.793 38.5166ZM33.4851 36.5355C33.7588 35.8512 33.9082 35.1626 33.9082 34.4766H31.9082C31.9082 34.8687 31.8232 35.305 31.6282 35.7927L33.4851 36.5355ZM33.9082 34.4766C33.9082 33.1332 33.5174 31.9539 32.5772 31.1328C31.663 30.3343 30.3949 30.0225 28.9531 30.0225V32.0225C30.1481 32.0225 30.8576 32.2863 31.2616 32.6392C31.6398 32.9695 31.9082 33.5172 31.9082 34.4766H33.9082ZM28.9531 30.0225H26.4307V32.0225H28.9531V30.0225ZM27.4307 31.0225V26.8828H25.4307V31.0225H27.4307ZM26.4307 27.8828H28.3379V25.8828H26.4307V27.8828ZM28.3379 27.8828C29.7968 27.8828 31.075 27.6031 32.0048 26.8782C32.9818 26.1164 33.4072 24.9973 33.4072 23.71H31.4072C31.4072 24.5378 31.1544 25.0052 30.775 25.301C30.3483 25.6337 29.5919 25.8828 28.3379 25.8828V27.8828ZM33.4072 23.71C33.4072 22.644 33.0005 21.682 32.2737 20.8472L30.7653 22.1606C31.2222 22.6852 31.4072 23.1939 31.4072 23.71H33.4072ZM32.2765 20.8505C31.3997 19.8348 29.983 19.4756 28.373 19.4756V21.4756C29.7748 21.4756 30.4558 21.8019 30.7626 22.1574L32.2765 20.8505ZM28.373 19.4756C27.0303 19.4756 25.8359 19.8411 24.8612 20.6298L26.1193 22.1846C26.6797 21.7311 27.4072 21.4756 28.373 21.4756V19.4756ZM24.8612 20.6298C23.725 21.5492 23.328 23.1946 23.3038 25.1036L25.3036 25.1289C25.3263 23.3347 25.7203 22.5074 26.1193 22.1846L24.8612 20.6298ZM24.3037 24.1162H19.0127V26.1162H24.3037V24.1162ZM20.0127 25.1162C20.0127 23.879 20.2239 22.6448 20.6519 21.4094L18.7621 20.7546C18.2644 22.1911 18.0127 23.6463 18.0127 25.1162H20.0127ZM20.6511 21.4118C21.0356 20.3113 21.831 19.3006 23.1336 18.3968L21.9934 16.7536C20.4248 17.842 19.316 19.1692 18.763 20.7522L20.6511 21.4118ZM23.1336 18.3968C24.3366 17.562 26.139 17.0811 28.6631 17.0811V15.0811C25.9254 15.0811 23.6614 15.5962 21.9934 16.7536L23.1336 18.3968ZM28.6631 17.0811C30.9788 17.0811 32.6479 17.4573 33.7695 18.1066L34.7715 16.3758C33.2212 15.4782 31.1521 15.0811 28.6631 15.0811V17.0811ZM33.774 18.1092C34.9902 18.805 35.7126 19.5796 36.0709 20.3946L37.9018 19.5898C37.3225 18.272 36.2344 17.2126 34.7671 16.3732L33.774 18.1092ZM36.0727 20.3988C36.4951 21.3479 36.6982 22.2822 36.6982 23.209H38.6982C38.6982 21.9795 38.4267 20.7693 37.8999 19.5856L36.0727 20.3988ZM36.6982 23.209C36.6982 24.6725 36.3042 25.663 35.6441 26.3274L37.0629 27.737C38.1958 26.5967 38.6982 25.0385 38.6982 23.209H36.6982ZM35.6441 26.3274C34.8849 27.0916 34.0016 27.5822 32.9768 27.8149L33.4197 29.7652C34.8207 29.4471 36.0409 28.7658 37.0629 27.737L35.6441 26.3274ZM32.1982 28.79V28.8955H34.1982V28.79H32.1982ZM33.1054 29.8912C34.262 29.999 35.2956 30.457 36.2284 31.2989L37.5685 29.8143C36.3333 28.6993 34.9001 28.0498 33.2911 27.8998L33.1054 29.8912ZM36.2284 31.2989C37.034 32.0262 37.5244 33.1961 37.5244 35.0127H39.5244C39.5244 32.8449 38.9308 31.0441 37.5685 29.8143L36.2284 31.2989ZM37.5244 35.0127C37.5244 37.0559 36.9426 38.4359 35.9275 39.3356L37.2541 40.8323C38.8171 39.4469 39.5244 37.446 39.5244 35.0127H37.5244ZM35.9258 39.3371C34.7508 40.3834 33.5418 41.0134 32.2971 41.2765L32.7107 43.2333C34.3488 42.887 35.8644 42.0697 37.2558 40.8308L35.9258 39.3371ZM32.2933 41.2773C30.8938 41.5788 29.735 41.7207 28.8037 41.7207V43.7207C29.9232 43.7207 31.2312 43.552 32.7145 43.2325L32.2933 41.2773ZM28.8037 41.7207C26.1136 41.7207 24.1617 41.2399 22.8389 40.3931L21.7607 42.0776C23.5316 43.2112 25.9157 43.7207 28.8037 43.7207V41.7207ZM22.8427 40.3955C21.4379 39.4875 20.5595 38.4454 20.1124 37.2889L18.2469 38.01C18.878 39.6425 20.0796 40.991 21.757 42.0752L22.8427 40.3955ZM20.1129 37.2902C19.6174 36.003 19.3711 34.6833 19.3711 33.3252H17.3711C17.3711 34.932 17.6638 36.4951 18.2464 38.0087L20.1129 37.2902Z" fill="white"/>
<defs>
<linearGradient id="paint0_linear_623_4" x1="5.40167e-07" y1="58" x2="59.7608" y2="56.1252" gradientUnits="userSpaceOnUse">
<stop stop-color="#1A2026"/>
<stop offset="1" stop-color="#2F2F2F"/>
</linearGradient>
</defs>
</svg>
