<svg width="58" height="61" viewBox="0 0 58 61" fill="none" xmlns="http://www.w3.org/2000/svg">
<circle cx="29" cy="29" r="29" fill="url(#paint0_linear_623_5)"/>
<path d="M30.1045 35.3135H31.1045V34.3135H30.1045V35.3135ZM18.1865 35.3135H17.1865V36.3135H18.1865V35.3135ZM18.1865 30.8135L17.4024 30.1928L17.1865 30.4656V30.8135H18.1865ZM30.0693 15.8018V14.8018H29.5855L29.2853 15.1811L30.0693 15.8018ZM36.0459 15.8018H37.0459V14.8018H36.0459V15.8018ZM36.0459 30.9541H35.0459V31.9541H36.0459V30.9541ZM39.1045 30.9541H40.1045V29.9541H39.1045V30.9541ZM39.1045 35.3135V36.3135H40.1045V35.3135H39.1045ZM36.0459 35.3135V34.3135H35.0459V35.3135H36.0459ZM36.0459 41V42H37.0459V41H36.0459ZM30.1045 41H29.1045V42H30.1045V41ZM22.6865 30.9541L21.8983 30.3387L20.6371 31.9541H22.6865V30.9541ZM30.1045 30.9541V31.9541H31.1045V30.9541H30.1045ZM30.1045 21.4531H31.1045V18.5474L29.3163 20.8377L30.1045 21.4531ZM30.1045 34.3135H18.1865V36.3135H30.1045V34.3135ZM19.1865 35.3135V30.8135H17.1865V35.3135H19.1865ZM18.9706 31.4341L30.8534 16.4224L29.2853 15.1811L17.4024 30.1928L18.9706 31.4341ZM30.0693 16.8018H36.0459V14.8018H30.0693V16.8018ZM35.0459 15.8018V30.9541H37.0459V15.8018H35.0459ZM36.0459 31.9541H39.1045V29.9541H36.0459V31.9541ZM38.1045 30.9541V35.3135H40.1045V30.9541H38.1045ZM39.1045 34.3135H36.0459V36.3135H39.1045V34.3135ZM35.0459 35.3135V41H37.0459V35.3135H35.0459ZM36.0459 40H30.1045V42H36.0459V40ZM31.1045 41V35.3135H29.1045V41H31.1045ZM22.6865 31.9541H30.1045V29.9541H22.6865V31.9541ZM31.1045 30.9541V21.4531H29.1045V30.9541H31.1045ZM29.3163 20.8377L21.8983 30.3387L23.4747 31.5695L30.8927 22.0685L29.3163 20.8377Z" fill="white"/>
<defs>
<linearGradient id="paint0_linear_623_5" x1="5.40167e-07" y1="58" x2="59.7608" y2="56.1252" gradientUnits="userSpaceOnUse">
<stop stop-color="#1A2026"/>
<stop offset="1" stop-color="#2F2F2F"/>
</linearGradient>
</defs>
</svg>
