<svg width="58" height="61" viewBox="0 0 58 61" fill="none" xmlns="http://www.w3.org/2000/svg">
<circle cx="29" cy="29" r="29" fill="url(#paint0_linear_623_3)"/>
<path d="M38.3135 36.6055H39.3135V35.6055H38.3135V36.6055ZM38.3135 41V42H39.3135V41H38.3135ZM19.0127 41H18.0127V42H19.0127V41ZM19.3994 37.1943L18.4467 36.8903L18.4454 36.8945L19.3994 37.1943ZM20.7266 34.7949L21.5063 35.4211L21.5086 35.4182L20.7266 34.7949ZM23.2402 32.3867L23.8569 33.1739L23.8575 33.1735L23.2402 32.3867ZM27.4062 29.4775L26.8684 28.6345L26.8642 28.6372L27.4062 29.4775ZM31.5371 20.3721L30.9343 21.17L30.9409 21.1749L31.5371 20.3721ZM25.6221 20.5479L26.2841 21.2974L26.2871 21.2947L25.6221 20.5479ZM24.418 24.5117V25.5117H25.418V24.5117H24.418ZM18.9072 24.5117H17.9072V25.5117H18.9072V24.5117ZM19.9092 19.4844L20.8004 19.9379L20.8012 19.9363L19.9092 19.4844ZM37.0479 18.5L36.2379 19.0865L36.2412 19.091L37.0479 18.5ZM37.7158 26.3223L36.795 25.9323L36.7931 25.9369L37.7158 26.3223ZM35.5977 29.2314L36.283 29.9596L36.2853 29.9575L35.5977 29.2314ZM31.4756 32.1758L31.9789 33.0399L31.9807 33.0388L31.4756 32.1758ZM27.8545 34.4521L28.4442 35.2598L28.4453 35.259L27.8545 34.4521ZM26 36.6055L25.1258 36.1198L24.3005 37.6055H26V36.6055ZM37.3135 36.6055V41H39.3135V36.6055H37.3135ZM38.3135 40H19.0127V42H38.3135V40ZM20.0127 41V39.9893H18.0127V41H20.0127ZM20.0127 39.9893C20.0127 39.0271 20.1318 38.1994 20.3534 37.4942L18.4454 36.8945C18.1514 37.8299 18.0127 38.8655 18.0127 39.9893H20.0127ZM20.3521 37.4984C20.5734 36.8049 20.9512 36.1123 21.5063 35.4211L19.9468 34.1688C19.2597 35.0244 18.7528 35.9315 18.4468 36.8903L20.3521 37.4984ZM21.5086 35.4182C22.0678 34.7165 22.844 33.9674 23.8569 33.1739L22.6236 31.5995C21.5271 32.4584 20.6275 33.3147 19.9445 34.1717L21.5086 35.4182ZM23.8575 33.1735C24.8849 32.3675 26.2457 31.4162 27.9483 30.3179L26.8642 28.6372C25.1332 29.7538 23.7167 30.7419 22.623 31.5999L23.8575 33.1735ZM27.9441 30.3206C29.9899 29.0155 31.4777 27.9116 32.3242 27.0192L30.8731 25.6429C30.2078 26.3443 28.9007 27.338 26.8684 28.6345L27.9441 30.3206ZM32.3242 27.0192C33.2814 26.01 33.7324 24.7258 33.7324 23.2549H31.7324C31.7324 24.2918 31.4275 25.0583 30.8731 25.6429L32.3242 27.0192ZM33.7324 23.2549C33.7324 21.7251 33.2652 20.4098 32.1333 19.5692L30.9409 21.1749C31.4027 21.5179 31.7324 22.1246 31.7324 23.2549H33.7324ZM32.1399 19.5742C31.156 18.8308 29.9919 18.4756 28.6982 18.4756V20.4756C29.6077 20.4756 30.3361 20.718 30.9343 21.1699L32.1399 19.5742ZM28.6982 18.4756C27.247 18.4756 25.972 18.8972 24.957 19.801L26.2871 21.2947C26.8776 20.7688 27.6534 20.4756 28.6982 20.4756V18.4756ZM24.9601 19.7983C23.8911 20.7425 23.418 22.0691 23.418 23.6152H25.418C25.418 22.4895 25.7476 21.7712 26.2841 21.2974L24.9601 19.7983ZM23.418 23.6152V24.5117H25.418V23.6152H23.418ZM24.418 23.5117H18.9072V25.5117H24.418V23.5117ZM19.9072 24.5117V23.7559H17.9072V24.5117H19.9072ZM19.9072 23.7559C19.9072 22.3715 20.207 21.1039 20.8004 19.9379L19.018 19.0308C18.2754 20.4898 17.9072 22.07 17.9072 23.7559H19.9072ZM20.8012 19.9363C21.3628 18.8279 22.2883 17.9024 23.643 17.175L22.6968 15.4129C21.0398 16.3027 19.7915 17.5041 19.0171 19.0324L20.8012 19.9363ZM23.643 17.175C24.9604 16.4676 26.7 16.0811 28.918 16.0811V14.0811C26.4836 14.0811 24.3911 14.5031 22.6968 15.4129L23.643 17.175ZM28.918 16.0811C30.5089 16.0811 31.9511 16.3358 33.2552 16.8329L33.9675 14.964C32.4122 14.3712 30.7255 14.0811 28.918 14.0811V16.0811ZM33.2552 16.8329C34.511 17.3115 35.4957 18.0615 36.2379 19.0865L37.8578 17.9135C36.8774 16.5595 35.571 15.5752 33.9675 14.964L33.2552 16.8329ZM36.2412 19.091C36.9555 20.0659 37.3486 21.3448 37.3486 23H39.3486C39.3486 21.0224 38.8746 19.3013 37.8545 17.909L36.2412 19.091ZM37.3486 23C37.3486 24.1017 37.1584 25.0743 36.795 25.9323L38.6366 26.7123C39.117 25.5781 39.3486 24.3358 39.3486 23H37.3486ZM36.7931 25.9369C36.4433 26.7744 35.8313 27.6329 34.91 28.5054L36.2853 29.9575C37.3562 28.9433 38.1563 27.8623 38.6386 26.7077L36.7931 25.9369ZM34.9123 28.5032C33.9905 29.3708 32.6855 30.309 30.9705 31.3127L31.9807 33.0388C33.7696 31.9918 35.2127 30.967 36.283 29.9596L34.9123 28.5032ZM30.9723 31.3117C29.2974 32.2872 28.0524 33.0678 27.2637 33.6453L28.4453 35.259C29.1449 34.7467 30.314 34.0096 31.9789 33.0399L30.9723 31.3117ZM27.2648 33.6445C26.396 34.2789 25.6856 35.1122 25.1258 36.1198L26.8742 37.0911C27.3104 36.3058 27.8365 35.7035 28.4442 35.2598L27.2648 33.6445ZM26 37.6055H38.3135V35.6055H26V37.6055Z" fill="white"/>
<defs>
<linearGradient id="paint0_linear_623_3" x1="5.40167e-07" y1="58" x2="59.7608" y2="56.1252" gradientUnits="userSpaceOnUse">
<stop stop-color="#1A2026"/>
<stop offset="1" stop-color="#2F2F2F"/>
</linearGradient>
</defs>
</svg>
