<svg width="58" height="61" viewBox="0 0 58 61" fill="none" xmlns="http://www.w3.org/2000/svg">
<circle cx="29" cy="29" r="29" fill="url(#paint0_linear_623_2)"/>
<path d="M21.3945 23.29H20.3945V24.29H21.3945V23.29ZM21.3945 20.3018V19.3018H20.3945V20.3018H21.3945ZM25.0771 19.7393L25.4388 20.6716L25.4418 20.6704L25.0771 19.7393ZM27.5557 18.1484L28.2628 18.8556L28.2658 18.8525L27.5557 18.1484ZM28.8037 15.8018V14.8018H27.9621L27.8184 15.631L28.8037 15.8018ZM33.2686 15.8018H34.2686V14.8018H33.2686V15.8018ZM33.2686 41V42H34.2686V41H33.2686ZM27.3359 41H26.3359V42H27.3359V41ZM27.3359 23.29H28.3359V22.29H27.3359V23.29ZM22.3945 23.29V20.3018H20.3945V23.29H22.3945ZM21.3945 21.3018H22.1504V19.3018H21.3945V21.3018ZM22.1504 21.3018C23.265 21.3018 24.3629 21.0889 25.4388 20.6716L24.7155 18.8069C23.8578 19.1396 23.0046 19.3018 22.1504 19.3018V21.3018ZM25.4418 20.6704C26.5316 20.2437 27.4774 19.6409 28.2628 18.8555L26.8486 17.4413C26.2746 18.0153 25.568 18.4731 24.7125 18.8081L25.4418 20.6704ZM28.2658 18.8525C29.0772 18.0341 29.5988 17.07 29.789 15.9725L27.8184 15.631C27.7039 16.2914 27.3935 16.8916 26.8455 17.4444L28.2658 18.8525ZM28.8037 16.8018H33.2686V14.8018H28.8037V16.8018ZM32.2686 15.8018V41H34.2686V15.8018H32.2686ZM33.2686 40H27.3359V42H33.2686V40ZM28.3359 41V23.29H26.3359V41H28.3359ZM27.3359 22.29H21.3945V24.29H27.3359V22.29Z" fill="white"/>
<defs>
<linearGradient id="paint0_linear_623_2" x1="5.40167e-07" y1="58" x2="59.7608" y2="56.1252" gradientUnits="userSpaceOnUse">
<stop stop-color="#1A2026"/>
<stop offset="1" stop-color="#2F2F2F"/>
</linearGradient>
</defs>
</svg>
